PathFileType	4	(X/Y/Z)	Run_400 05
DataRate	CameraRate	NumFrames	NumMarkers	Units	OrigDataRate	OrigDataStartFrame	OrigNumFrames
120	120	5	42	mm	120	32	128
Frame#	Time	LASI			RASI			LPSI			RPSI			RTH1			RTH2			RTH3			LTH1			LTH2			LTH3			RTB1			RTB2			RTB3			LTB1			LTB2			LTB3			RCAL			RTOE			RMT5			LCAL			LTOE			LMT5			LACR			RACR			CLAV			C7			RUA1			RUA2			RUA3			RLEL			RMEL			LUA1			LUA2			LUA3			LLEL			LMEL			RFAsuperior			RFAradius			RFAulna			LFAsuperior			LFAradius			LFAulna			
		X1	Y1	Z1	X2	Y2	Z2	X3	Y3	Z3	X4	Y4	Z4	X5	Y5	Z5	X6	Y6	Z6	X7	Y7	Z7	X8	Y8	Z8	X9	Y9	Z9	X10	Y10	Z10	X11	Y11	Z11	X12	Y12	Z12	X13	Y13	Z13	X14	Y14	Z14	X15	Y15	Z15	X16	Y16	Z16	X17	Y17	Z17	X18	Y18	Z18	X19	Y19	Z19	X20	Y20	Z20	X21	Y21	Z21	X22	Y22	Z22	X23	Y23	Z23	X24	Y24	Z24	X25	Y25	Z25	X26	Y26	Z26	X27	Y27	Z27	X28	Y28	Z28	X29	Y29	Z29	X30	Y30	Z30	X31	Y31	Z31	X32	Y32	Z32	X33	Y33	Z33	X34	Y34	Z34	X35	Y35	Z35	X36	Y36	Z36	X37	Y37	Z37	X38	Y38	Z38	X39	Y39	Z39	X40	Y40	Z40	X41	Y41	Z41	X42	Y42	Z42	

32	0.358333	962.301607	1088.46213	-420.627687	944.766072	1067.986934	-162.051454	780.120136	1127.326086	-349.493336	775.06129	1119.437833	-266.638788	826.561091	911.934647	-123.112586	829.952912	796.7390329999999	-140.398901	715.933597	719.9172150000001	-178.028171	985.810918	911.775759	-472.288341	1108.892724	855.276323	-451.976697	1116.052097	728.684741	-437.366363	632.784224	424.651788	-265.947038	571.88449	382.636764	-202.693347	527.468442	292.929045	-274.456324	1180.29426	520.250121	-372.070322	1113.433163	456.05643	-425.667788	1077.828186	344.014764	-363.736053	354.273629	240.554956	-297.72152	505.338334	64.378652	-321.255865	430.261835	79.922151	-235.620431	920.04463	265.038925	-340.207068	1124.393682	152.523125	-361.389618	1040.839426	163.09274	-437.325648	934.272158	1561.872146	-463.498558	1005.949908	1555.707619	-136.986687	1020.479752	1501.822163	-278.075765	895.517423	1584.141118	-277.049916	1014.258482	1454.423341	-60.746598	1028.688317	1366.219331	-68.61813600000001	971.736143	1350.727798	-13.861846	993.512169	1217.544526	33.752607	943.825719	1193.801	-32.953548	872.736311	1504.79468	-534.379829	857.956009	1436.133603	-544.502915	766.188072	1460.675254	-512.784099	684.191117	1328.961926	-588.936966	652.482177	1327.671728	-509.379129	1082.187366	1257.341598	-18.826194	1158.293027	1326.841501	-162.545684	1201.474461	1279.213002	-127.243718	773.381785	1288.780717	-575.507064	919.382927	1248.258285	-479.845115	898.902139	1183.621476	-505.498186	
33	0.366667	963.476727	1095.046133	-418.87734	949.18949	1073.800126	-161.478588	783.139771	1133.623682	-347.688643	778.628148	1125.349155	-264.667446	826.643497	918.074323	-122.091781	825.8609300000001	803.1684299999999	-139.949999	709.383338	730.676601	-178.24613	985.574746	916.755595	-471.706225	1107.829147	857.44219	-452.377741	1112.793445	729.540227	-434.208776	619.172825	436.210007	-265.431319	557.199643	395.853359	-202.39503	513.243579	304.336745	-273.158222	1188.725728	520.411557	-371.534936	1128.455805	449.9328	-425.446599	1102.661433	335.651129	-362.360293	345.460849	259.492821	-296.959494	479.473487	69.30470099999999	-319.062191	404.266302	91.157613	-235.558551	952.454817	242.890615	-340.31153	1166.361613	149.092596	-355.044966	1084.005764	149.618113	-432.199225	933.050397	1567.423021	-463.236876	1006.789383	1562.350531	-138.710512	1020.38621	1507.43902	-278.903478	895.566428	1589.109327	-277.00462	1015.748627	1462.009909	-62.008829	1030.314165	1373.976579	-69.458528	972.612828	1358.47451	-15.154911	996.277842	1224.936073	32.584959	945.337038	1201.008333	-33.232536	870.604058	1511.778087	-533.1102069999999	854.792057	1443.616797	-543.856709	764.0082630000001	1468.743737	-509.635058	678.669751	1337.768904	-584.960224	649.001756	1336.401884	-504.827672	1082.456522	1267.229124	-22.235046	1152.678503	1341.084331	-166.576972	1198.118584	1293.189364	-133.318416	768.032956	1297.747736	-573.903173	916.262051	1256.685909	-481.114522	894.852113	1192.045749	-505.815071	
34	0.375	964.304342	1100.121215	-417.791852	952.98668	1079.500715	-160.463773	785.932731	1138.875782	-345.828267	781.85054	1130.762851	-262.508268	826.965145	924.0618030000001	-121.065255	823.005097	809.09199	-139.190997	704.59713	740.472215	-178.54467	984.114017	918.895005	-470.613572	1105.37332	857.070923	-452.89509	1108.941298	728.48842	-431.856592	607.588166	447.11401	-265.336741	544.677915	408.392911	-202.584555	499.770761	316.359886	-272.706638	1195.463769	519.4101920000001	-370.895524	1142.45375	443.26138	-425.083594	1126.420899	327.694668	-360.937462	336.539928	278.532577	-296.44938	455.702148	77.771996	-317.138344	380.531607	104.946322	-235.636463	984.840469	221.564347	-340.732855	1206.759829	148.411502	-347.80846	1127.204044	138.641357	-426.441582	931.9340570000001	1572.303698	-462.913341	1007.515377	1568.093523	-140.218348	1020.298071	1512.190939	-279.677879	895.62569	1593.470249	-276.952961	1016.653772	1468.801083	-62.96142	1031.510954	1380.891623	-69.76745	973.2435390000001	1365.620536	-15.818909	998.391291	1231.51129	31.83108	946.05926	1207.584771	-32.999977	868.789561	1517.874135	-532.160554	852.120768	1450.125713	-543.502082	762.294806	1475.888712	-506.984836	673.808511	1345.390694	-581.226948	646.103929	1343.935572	-500.695374	1082.052625	1275.949693	-25.14488	1146.797993	1353.682531	-169.972238	1194.075009	1305.505309	-138.625428	763.278693	1305.717794	-572.3487280000001	913.648058	1264.226855	-482.39264	891.45418	1199.507005	-506.182264	
35	0.383333	964.877064	1103.533663	-418.16963	956.12059	1084.733894	-159.305788	788.298012	1142.815599	-343.990978	784.563607	1135.522703	-260.273078	827.7231379999999	929.568948	-120.007902	821.526631	814.1722590000001	-138.375625	701.743113	748.791439	-178.821823	981.639921	918.320249	-469.04719	1101.838516	854.44686	-453.460404	1104.667641	725.77148	-430.822552	597.9072609999999	456.976802	-265.568997	534.000378	420.051722	-203.028924	486.763271	328.875249	-272.960269	1200.380159	517.277331	-370.219966	1155.064105	436.120913	-424.508154	1148.745849	320.185343	-359.465998	325.916582	297.38029	-296.425068	433.6803	89.713763	-316.299921	359.024267	120.757184	-236.017729	1016.977632	201.268702	-341.151355	1245.006131	150.501196	-340.009276	1169.633929	130.678529	-420.334139	930.844362	1576.401797	-462.591049	1008.201006	1572.881182	-141.492139	1020.239997	1516.126575	-280.46549	895.693937	1597.155272	-276.910222	1017.083051	1474.669594	-63.639149	1032.381166	1386.862978	-69.722245	973.989743	1371.928824	-15.914716	999.855439	1237.163792	31.439063	945.98641	1213.440317	-32.300381	867.124714	1523.042556	-531.56443	849.804548	1455.551342	-543.334526	760.88542	1481.956303	-504.834903	669.6402399999999	1351.686679	-577.902524	643.7027430000001	1350.11288	-497.091611	1081.098981	1283.348254	-27.504582	1140.926379	1364.311138	-172.740625	1189.504855	1315.844628	-143.243802	759.1741940000001	1312.578841	-570.720494	911.558081	1270.763953	-483.72339	888.76674	1205.943892	-506.663863	
36	0.391667	965.276163	1105.444648	-420.015434	958.681004	1089.181543	-158.325394	790.110374	1145.354867	-342.30382	786.717315	1139.493341	-258.167452	829.110831	934.229042	-118.958989	821.454262	818.173438	-137.778667	700.88149	755.2701960000001	-178.957779	978.5188439999999	915.797906	-467.423908	1097.778593	850.0674320000001	-454.129653	1099.787187	721.482943	-430.992783	590.093888	465.549751	-265.918413	524.900791	430.824247	-203.488659	474.697709	341.336911	-273.546183	1203.477725	514.031661	-369.63569	1165.921143	428.662145	-423.712432	1169.260095	313.215579	-357.922985	313.194378	316.172461	-296.854293	412.870306	104.46091	-317.024018	339.237814	137.940818	-236.930627	1048.491896	182.479187	-341.284304	1280.412112	155.113967	-331.995815	1210.223819	126.000517	-414.13967	929.784526	1579.617257	-462.37444	1008.912788	1576.722817	-142.524213	1020.244301	1519.300595	-281.272143	895.782144	1600.132551	-276.896557	1017.253708	1479.515512	-64.120588	1033.05577	1391.743646	-69.529111	975.0465390000001	1377.170538	-15.603359	1000.613137	1241.861922	31.388906	945.116638	1218.536103	-31.193993	865.520357	1527.262606	-531.263157	847.739385	1459.837531	-543.149677	759.638192	1486.796671	-503.148661	666.210754	1356.545408	-575.12788	641.775123	1354.802617	-494.10835	1079.727586	1289.300537	-29.251446	1135.267233	1372.668991	-174.924627	1184.66675	1323.921196	-147.200119	755.799816	1318.245049	-569.149593	910.012656	1276.19384	-485.083086	886.828528	1211.292264	-507.296702	
